<?xml version="1.0" encoding="UTF-8"?>
<svg id="Layer_1" data-name="Layer 1" xmlns="http://www.w3.org/2000/svg" viewBox="0 0 1080 1080">
  <defs>
    <style>
      .cls-1 {
        fill: #07243c;
      }
    </style>
  </defs>
  <path class="cls-1" d="M550.08,604.71v-23.41c23.54,0,46.42,0,69.29,0,5.97,0,11.94,0,17.92-.02,10.78-.02,18.14-4.72,18.27-16.05,.14-11.92-8.39-15.43-18.59-15.58-17.03-.25-34.08,.28-51.09-.25-16.84-.53-30.1-11.08-34.87-26.56-4.8-15.55,.52-31.09,15.02-40.88,4.74-3.2,10.84-6.06,16.37-6.17,30.75-.59,61.53-.28,93.48-.28v22.71c-22.54,0-44.04-.02-65.54,.01-7.82,.01-16.25-1.63-23.25,.8-5.63,1.95-12.33,8.27-13.54,13.76-1.81,8.17,4.82,13.37,13.57,13.5,17.45,.27,34.92-.2,52.35,.48,23.15,.9,39.27,17.35,39.44,39.23,.15,20.71-16.42,37.97-38.85,38.53-29.39,.73-58.8,.18-89.95,.18Z"/>
  <path class="cls-1" d="M534.76,540.11c-.09,34.94-25.28,63.39-63.59,64.39-36.74,.96-66.08-29.3-65.59-65.27,.48-35.6,29.11-63.94,64.45-63.8,36.06,.15,65.1,29.16,64.73,64.68Zm-65.64,43.12c23.29,.73,43.49-18.38,44.28-41.89,.81-23.87-17.83-43.68-41.48-44.12-24.49-.45-43.58,17.15-44.57,41.09-1.01,24.33,17.43,44.16,41.77,44.92Z"/>
  <path class="cls-1" d="M824.55,475.9v21.2c-20.21,0-40.25-.09-60.28,.03-17.76,.11-32.31,6.25-41.31,22.58-9.02,16.35-6.42,31.79,3.27,46.83,9.56,14.82,24.77,16.24,40.11,16.57,19.18,.42,38.37,.1,58.18,.1v20.5c-25.12,0-50.01,2.26-74.31-.55-33.1-3.83-55.42-33.01-54.27-65.74,1.12-31.92,26.28-58.72,59.91-61.2,22.34-1.65,44.9-.31,68.7-.31Z"/>
  <path class="cls-1" d="M915.65,603.4c-21.7,2.97-21.88,2.75-21.89-15.23-.02-28.51-.14-57.02-.29-85.53,0-1.3-.71-2.6-1.4-4.99h-51.29v-21.52h127.59v20.35h-52.72v106.94Z"/>
  <path class="cls-1" d="M387.47,583.2v19.41c-27.27,0-54.66,3.33-80.8-.96-24.96-4.1-42.57-23.34-45.47-49.26-2.78-24.82-.6-50.2-.6-76.22h20.01c0,18.69,.13,37.37-.03,56.04-.28,33.48,15.23,50.02,48.76,50.89,19.15,.5,38.33,.09,58.13,.09Z"/>
  <path class="cls-1" d="M111.63,539.65c33.08-21.78,63.28-42.9,94.88-61.64,8.34-4.95,21.05-2.53,32.64-.67-30.98,20.66-61.95,41.32-94.51,63.04,33.05,21.6,63.85,41.73,97.09,63.46-20.36,2.3-35.58,.9-50.73-11.55-18.25-14.99-39.53-26.28-59.46-39.23-6.12-3.97-12.1-8.14-19.91-13.41Z"/>
  <path class="cls-1" d="M824.19,530.71v18.96h-63c-.32-5.24-.69-11.39-1.14-18.96h64.15Z"/>
</svg>